# xmcd
#
# Track frame offsets:
# 150
# 13423
# 27440
# 42203
# 55868
# 68440
# 82615
# 95970
# 108188
# 121754
# 136928
# 149671
# 162523
# 176856
# 191627
# 203962
#
# Disc length: 2883 seconds
#
# Revision: 1
# Processed by: cddbd v1.5.1PL2 Copyright (c) Steve Scherf et al.
# Submitted via: Easy CD Ripper v2.37
#
DISCID=e20b4110
DTITLE=The Carter Family - My Clinch Mountain Home
DYEAR=1984
DGENRE=Country
TTITLE0=The Foggy Mountain Top
TTITLE1=Sweet Fern
TTITLE2=Bring Back My Blue Eyed Boy
TTITLE3=God Gave Noah the Rainbow Sign
TTITLE4=The Cyclone of Rye Cove
TTITLE5=My Clinch Mountain Home
TTITLE6=Forsaken Love
TTITLE7=The Grave on the Green Hillside
TTITLE8=I'm Thinking Tonight of My Blue Eyes
TTITLE9=Diamonds In The Rough
TTITLE10=Lulu Walls
TTITLE11=I Have No One to Love Me (But The Sailor On The Deep Blue Sea)
TTITLE12=Little Moses
TTITLE13=Engine 143
TTITLE14=Don't Forget This Song
TTITLE15=The Homestead On The Farm
EXTD=
EXTT0=
EXTT1=
EXTT2=
EXTT3=
EXTT4=
EXTT5=
EXTT6=
EXTT7=
EXTT8=
EXTT9=
EXTT10=
EXTT11=
EXTT12=
EXTT13=
EXTT14=
EXTT15=
PLAYORDER=
